<?xml version="1.0" encoding="UTF-8"?>
<svg xmlns="http://www.w3.org/2000/svg" viewBox="0 0 632.12 292.75">
  <defs>
    <style>
      .cls-1 {
        fill: #fff;
      }

      .cls-2 {
        fill: #233d4d;
      }

      .cls-3 {
        fill: #00bfff;
      }

      .cls-4 {
        fill: #bc8f8f;
      }

      .cls-5 {
        fill: #ff4500;
      }

      .cls-6 {
        fill: #f8c91f;
      }

      .cls-7 {
        fill: #033;
        font-family: Montserrat-Bold, Montserrat;
        font-size: 78px;
        font-weight: 700;
      }

      .cls-8 {
        fill: #75787b;
      }

      .cls-9 {
        fill: #593f62;
      }

      .cls-10 {
        letter-spacing: -.01em;
      }

      .cls-11 {
        letter-spacing: -.02em;
      }
    </style>
  </defs>
  <g id="BACKGROUND">
    <rect class="cls-1" width="632.12" height="292.75"/>
  </g>
  <g id="OBJECTS">
    <g>
      <path class="cls-6" d="m94.48,34.31l-1.61,3.65c-.13.29-.11.62.04.9l1.9,3.51c.46.86-.42,1.81-1.31,1.42l-3.65-1.61c-.29-.13-.62-.11-.9.04l-3.51,1.9c-.86.46-1.81-.42-1.42-1.31l1.61-3.65c.13-.29.11-.62-.04-.9l-1.9-3.51c-.46-.86.42-1.81,1.31-1.42l3.65,1.61c.29.13.62.11.9-.04l3.51-1.9c.86-.46,1.81.42,1.42,1.31Z"/>
      <path class="cls-6" d="m249.17,60.11l-.95,3.14c-.07.25-.03.52.12.73l1.9,2.68c.46.65-.16,1.52-.93,1.29l-3.14-.95c-.25-.08-.52-.03-.73.12l-2.68,1.9c-.65.46-1.52-.16-1.29-.93l.95-3.14c.08-.25.03-.52-.12-.73l-1.9-2.68c-.46-.65.16-1.52.93-1.29l3.14.95c.25.08.52.03.73-.12l2.68-1.9c.65-.46,1.52.16,1.29.93Z"/>
      <path class="cls-6" d="m203.75,259.77l2.03,2.58c.16.2.41.32.67.32l3.28-.03c.8,0,1.16,1,.53,1.5l-2.58,2.03c-.2.16-.32.41-.32.67l.03,3.28c0,.8-1,1.16-1.5.53l-2.03-2.58c-.16-.2-.41-.32-.67-.32l-3.28.03c-.8,0-1.16-1-.53-1.5l2.58-2.03c.2-.16.32-.41.32-.67l-.03-3.28c0-.8,1-1.16,1.5-.53Z"/>
      <path class="cls-6" d="m270.64,224.17l-3.13-.99c-.25-.08-.52-.04-.73.11l-2.7,1.87c-.66.46-1.52-.18-1.28-.94l.99-3.13c.08-.25.04-.52-.11-.73l-1.87-2.7c-.46-.66.18-1.52.94-1.28l3.13.99c.25.08.52.04.73-.11l2.7-1.87c.66-.46,1.52.18,1.28.94l-.99,3.13c-.08.25-.04.52.11.73l1.87,2.7c.46.66-.18,1.52-.94,1.28Z"/>
      <path class="cls-6" d="m31.37,165.3l-2.19,2.44c-.17.19-.25.46-.2.71l.59,3.23c.14.79-.79,1.31-1.39.78l-2.44-2.19c-.19-.17-.46-.25-.71-.2l-3.23.59c-.79.14-1.31-.79-.78-1.39l2.19-2.44c.17-.19.25-.46.2-.71l-.59-3.23c-.14-.79.79-1.31,1.39-.78l2.44,2.19c.19.17.46.25.71.2l3.23-.59c.79-.14,1.31.79.78,1.39Z"/>
      <path class="cls-6" d="m286.8,209.29l-1.54,4.42c-.12.35-.07.74.13,1.05l2.55,3.92c.62.96-.32,2.16-1.4,1.78l-4.42-1.54c-.35-.12-.74-.07-1.05.13l-3.92,2.55c-.96.62-2.16-.32-1.78-1.4l1.54-4.42c.12-.35.07-.74-.13-1.05l-2.55-3.92c-.62-.96.32-2.16,1.4-1.78l4.42,1.54c.35.12.74.07,1.05-.13l3.92-2.55c.96-.62,2.16.32,1.78,1.4Z"/>
      <path class="cls-6" d="m126.26,270.37l.96,4.58c.08.36.32.67.65.83l4.21,2.05c1.03.5.84,2.01-.28,2.25l-4.58.96c-.36.08-.67.32-.83.65l-2.05,4.21c-.5,1.03-2.01.84-2.25-.28l-.96-4.58c-.08-.36-.32-.67-.65-.83l-4.21-2.05c-1.03-.5-.84-2.01.28-2.25l4.58-.96c.36-.08.67-.32.83-.65l2.05-4.21c.5-1.03,2.01-.84,2.25.28Z"/>
      <path class="cls-6" d="m28.26,179.66l-3.13,3.48c-.25.28-.35.65-.29,1.01l.84,4.6c.2,1.12-1.13,1.87-1.98,1.11l-3.48-3.13c-.28-.25-.65-.35-1.01-.29l-4.6.84c-1.12.2-1.87-1.13-1.11-1.98l3.13-3.48c.25-.28.35-.65.29-1.01l-.84-4.6c-.2-1.12,1.13-1.87,1.98-1.11l3.48,3.13c.28.25.65.35,1.01.29l4.6-.84c1.12-.2,1.87,1.13,1.11,1.98Z"/>
      <path class="cls-8" d="m140.54,151.71c-.53-5.46,3.46-10.32,8.92-10.85s10.32,3.46,10.85,8.92c.53,5.46-3.46,10.32-8.92,10.85-5.46.53-10.32-3.46-10.85-8.92Z"/>
      <g>
        <circle class="cls-3" cx="199.38" cy="55.98" r="26.86" transform="translate(-7.71 57.06) rotate(-15.98)"/>
        <path class="cls-3" d="m265.15,86.6c-1.87-.15-4.48-.09-4.48-.09,0,0,5.01-1.76,7.08-2.9,2.06-1.14.73-2.93-1.1-2.62-1.81.3-6.73,1.55-6.73,1.55,0,0,6.18-3.87,7.8-5.35,1.62-1.48.35-4.03-2.25-2.71-2.56,1.3-8.49,4.3-8.49,4.3,0,0,4.48-3.46,6.61-5.8,2.13-2.34-.36-4.09-2.23-2.87-1.87,1.21-8.27,6.48-8.27,6.48,2.6-3.57,1.04-5.92-.38-5.41-1.42.51-3.63,6.9-6.91,8.41-9.55,1.86-19.1,3.72-28.65,5.58-5.38,1.05-10.61,3.07-16.09,3.52-7.89.64-16.33-1.18-22.29-6.63-5.28-4.83-8.08-11.61-10.33-18.25-2.56-7.56-5.43-15.03-8.18-22.54-1.1-2.99-2.19-5.97-3.29-8.96-.52-3.58,3.62-8.91,3.27-10.38s-3.17-1.49-4.74,2.64c0,0,.91-8.24.91-10.47,0-2.23-2.83-3.36-3.63-.3-.8,3.06-1.25,8.71-1.25,8.71,0,0-.73-6.6-1.04-9.46-.31-2.9-3.14-2.58-3.5-.41-.36,2.17-.22,9.45-.22,9.45,0,0-1.65-4.8-2.39-6.48-.74-1.7-2.96-1.84-2.79.5.17,2.36,1.43,7.52,1.43,7.52,0,0-1.38-2.21-2.53-3.7-1.22-1.59-2.55-.88-2.16.81.39,1.7,2.53,9.22,3.52,15.4l7.44,80.58c1.77,15.08,18.26,23.56,31.55,16.21l69.57-38.44c.14-.04.28-.09.43-.15,5.71-2.55,13.18-4.87,14.82-5.47,1.63-.6,1.5-2.1-.5-2.25Z"/>
      </g>
      <g>
        <circle class="cls-9" cx="256.25" cy="170.39" r="25.93" transform="translate(-51.42 176.24) rotate(-34.71)"/>
        <path class="cls-9" d="m246.12,239.71c-.38-1.77-1.15-4.17-1.15-4.17,0,0,3.01,4.15,4.65,5.74,1.63,1.59,2.91-.14,2.11-1.75-.78-1.59-3.29-5.8-3.29-5.8,0,0,5.28,4.64,7.11,5.73s3.82-.79,1.88-2.83c-1.91-2.01-6.32-6.66-6.32-6.66,0,0,4.44,3.19,7.2,4.51,2.76,1.32,3.68-1.47,2.04-2.86-1.64-1.39-8.29-5.86-8.29-5.86,4.02,1.41,5.76-.68,4.9-1.85-.86-1.18-7.38-1.44-9.69-4.06-4.36-8.32-8.73-16.64-13.09-24.95-2.46-4.69-5.78-8.96-7.71-13.91-2.78-7.12-3.43-15.43-.04-22.46,3-6.22,8.51-10.69,14.02-14.6,6.29-4.46,12.41-9.18,18.58-13.8,2.46-1.84,4.92-3.68,7.38-5.52,3.16-1.48,9.25.89,10.51.15,1.26-.73.5-3.35-3.75-3.66,0,0,7.88-1.44,9.94-2.06,2.06-.62,2.33-3.54-.73-3.44-3.05.11-8.4,1.25-8.4,1.25,0,0,5.9-2.5,8.46-3.58,2.6-1.09,1.52-3.62-.59-3.35-2.11.27-8.81,2.41-8.81,2.41,0,0,3.99-2.86,5.34-4,1.37-1.16.89-3.25-1.24-2.45-2.13.81-6.56,3.41-6.56,3.41,0,0,1.67-1.89,2.73-3.36,1.13-1.57.11-2.6-1.35-1.77-1.46.83-7.83,4.89-13.27,7.51l-72.48,29.19c-13.46,5.81-16.74,23.41-6.26,33.67l54.82,53.71c.08.12.16.24.26.36,3.94,4.58,8.15,10.85,9.16,12.19,1.01,1.35,2.35.81,1.95-1.08Z"/>
      </g>
      <g>
        <circle class="cls-5" cx="164.22" cy="254.42" r="25.71" transform="translate(-137.61 229.95) rotate(-52.52)"/>
        <path class="cls-5" d="m95.64,265.35c1.57-.89,3.61-2.33,3.61-2.33,0,0-3.03,4.08-4.06,6.1-1.02,2.01.99,2.71,2.28,1.48,1.27-1.21,4.51-4.83,4.51-4.83,0,0-2.83,6.37-3.32,8.42-.49,2.05,1.88,3.38,3.24.94,1.33-2.4,4.43-7.95,4.43-7.95,0,0-1.7,5.15-2.14,8.15-.43,3,2.48,3.05,3.31,1.08.83-1.96,3.09-9.57,3.09-9.57-.15,4.22,2.35,5.25,3.2,4.09.86-1.17-.82-7.41.97-10.37,6.58-6.59,13.16-13.18,19.74-19.77,3.71-3.72,6.77-8.12,10.88-11.41,5.92-4.74,13.59-7.81,21.24-6.68,6.77,1,12.63,4.88,17.96,8.94,6.08,4.63,12.36,9.02,18.56,13.5,2.47,1.78,4.94,3.56,7.4,5.35,2.33,2.56,1.9,9.01,2.96,9.99,1.07.98,3.31-.52,2.35-4.63,0,0,3.69,7.03,4.89,8.8,1.2,1.77,4.04,1.15,3.04-1.7-1-2.86-3.67-7.58-3.67-7.58,0,0,4.12,4.85,5.89,6.95,1.8,2.13,3.87.36,2.99-1.55-.88-1.91-4.89-7.62-4.89-7.62,0,0,3.88,2.93,5.36,3.87,1.5.95,3.34-.12,1.95-1.9-1.4-1.78-5.16-5.19-5.16-5.19,0,0,2.28,1.02,3.99,1.58,1.82.6,2.49-.66,1.28-1.8-1.22-1.14-6.94-5.96-11.04-10.33l-49.06-59.94c-9.48-11.02-27.1-8.91-33.71,4.04l-34.6,67.76c-.09.11-.18.22-.26.35-3.17,5.08-7.85,10.92-8.83,12.27-.97,1.35-.07,2.46,1.6,1.52Z"/>
      </g>
      <g>
        <path class="cls-4" d="m81.26,184.25c-7.06-12.32-22.77-16.58-35.09-9.52-12.32,7.06-16.58,22.77-9.52,35.09,7.06,12.32,22.77,16.58,35.09,9.52,12.32-7.06,16.58-22.77,9.52-35.09Z"/>
        <path class="cls-4" d="m23.44,137.36c1.4,1.13,3.5,2.49,3.5,2.49,0,0-4.91-1.31-7.17-1.52-2.24-.21-2.15,1.92-.54,2.66,1.59.73,6.16,2.41,6.16,2.41,0,0-6.97-.27-9.05.03-2.08.3-2.45,3,.32,3.36,2.73.35,9.03,1.18,9.03,1.18,0,0-5.41.32-8.36,1.03-2.95.71-1.91,3.43.22,3.48,2.13.05,10.04-.67,10.04-.67-3.98,1.42-4.01,4.12-2.61,4.49,1.4.37,6.58-3.5,10-2.93,8.56,3.67,17.11,7.35,25.67,11.02,4.82,2.07,10.05,3.28,14.63,5.89,6.59,3.75,12.29,9.73,14.06,17.26,1.57,6.66.13,13.54-1.66,20-2.05,7.36-3.81,14.82-5.68,22.23-.74,2.95-1.49,5.9-2.23,8.86-1.51,3.11-7.67,5.1-8.18,6.45-.51,1.35,1.71,2.89,5.17.47,0,0-5.16,6.03-6.36,7.79s.42,4.18,2.71,2.19c2.28-1.99,5.68-6.22,5.68-6.22,0,0-2.98,5.62-4.27,8.04-1.31,2.46,1.09,3.73,2.55,2.21s5.27-7.36,5.27-7.36c0,0-1.28,4.69-1.61,6.41-.33,1.74,1.35,3.06,2.48,1.11,1.14-1.96,2.92-6.72,2.92-6.72,0,0-.1,2.5,0,4.29.11,1.91,1.54,2.07,2.15.52.61-1.55,2.97-8.66,5.52-14.08l37.54-67.75c6.73-12.88-1.75-28.48-16.22-29.83l-75.75-7.08c-.13-.04-.27-.09-.42-.11-5.89-1.06-13.05-3.25-14.67-3.66-1.62-.4-2.31.85-.82,2.05Z"/>
      </g>
      <g>
        <circle class="cls-2" cx="75.98" cy="80.45" r="25.13" transform="translate(-21.04 27.23) rotate(-17.89)"/>
        <path class="cls-2" d="m120.6,29.29c-.62,1.65-1.25,4-1.25,4,0,0-.28-4.96-.77-7.12-.49-2.15-2.44-1.41-2.64.31-.2,1.7-.36,6.45-.36,6.45,0,0-1.87-6.55-2.78-8.4-.91-1.84-3.53-1.36-3.02,1.32.5,2.64,1.65,8.75,1.65,8.75,0,0-1.94-4.93-3.5-7.45-1.55-2.52-3.77-.74-3.16,1.26.61,2,3.68,9.12,3.68,9.12-2.53-3.26-5.05-2.47-4.96-1.06.09,1.41,5.26,5.05,5.76,8.39-.81,9.07-1.62,18.13-2.43,27.2-.46,5.11,0,10.33-1.02,15.38-1.47,7.26-5.3,14.37-11.75,18.31-5.71,3.49-12.54,4.24-19.08,4.54-7.46.34-14.92.97-22.38,1.49-2.97.21-5.94.42-8.91.62-3.35-.46-7.07-5.57-8.48-5.64-1.41-.07-2.16,2.46,1.14,4.95,0,0-7.17-2.96-9.18-3.54-2-.58-3.76,1.67-1.21,3.18,2.54,1.52,7.5,3.39,7.5,3.39,0,0-6.12-1.06-8.77-1.52-2.69-.47-3.13,2.15-1.28,3.04,1.86.89,8.44,2.66,8.44,2.66,0,0-4.75.24-6.45.46-1.72.22-2.43,2.18-.27,2.64,2.16.46,7.13.66,7.13.66,0,0-2.35.67-3.99,1.31-1.74.69-1.46,2.06.17,2.15,1.63.09,8.94.12,14.75.84l74.36,14.25c14.01,2.33,25.92-10.29,22.77-24.14l-16.47-72.52c0-.14,0-.28-.02-.43-.81-5.8-.95-13.11-1.06-14.74-.12-1.63-1.49-1.89-2.15-.14Z"/>
      </g>
    </g>
  </g>
  <g id="TEXT">
    <text class="cls-7" transform="translate(293.78 198.21)"><tspan class="cls-11" x="0" y="0">V</tspan><tspan x="52.42" y="0">O</tspan><tspan class="cls-10" x="116.84" y="0">R</tspan><tspan x="172.46" y="0">TEX</tspan></text>
  </g>
</svg>